# xmcd
#
# Track frame offsets: 
#        150
#        10818
#        24503
#        38300
#        51194
#        67362
#        78702
#        93717
#        105577
#        125467
#        136294
#        149921
#        165985
#        179559
#        192001
#        211860
#        225812
#
# Disc length: 3160 seconds
#
# Revision: 0
# Processed by: cddbd v1.5.2PL0 Copyright (c) Steve Scherf et al.
# Submitted via: ExactAudioCopy v0.99pb3
#
DISCID=e60c5611
DTITLE=Herman McGee - Family and Friends
DYEAR=2010
DGENRE=Bluegrass
TTITLE0=Think of What You've Done
TTITLE1=The Dream
TTITLE2=Mama Tried
TTITLE3=The Beaumont Rag
TTITLE4=Country Roads
TTITLE5=Close Your Eyes
TTITLE6=Lost River
TTITLE7=Gold Watch And Chain
TTITLE8=Somewhere Over The Rainbow
TTITLE9=Who's Shoulder Will You Cry On
TTITLE10=Jimmy Brown
TTITLE11=Once more
TTITLE12=St. Annes Reel
TTITLE13=Are You Teasing Me
TTITLE14=Green Pastures
TTITLE15=This Old Guitar
TTITLE16=Bonus track - Bury Me Beneath the Willow
EXTD=
EXTT0=
EXTT1=
EXTT2=
EXTT3=
EXTT4=
EXTT5=
EXTT6=
EXTT7=
EXTT8=
EXTT9=
EXTT10=
EXTT11=
EXTT12=
EXTT13=
EXTT14=
EXTT15=
EXTT16=
PLAYORDER=
